<mxfile host="Electron" modified="2023-10-30T13:32:36.522Z" agent="Mozilla/5.0 (Windows NT 10.0; Win64; x64) AppleWebKit/537.36 (KHTML, like Gecko) draw.io/22.0.2 Chrome/114.0.5735.289 Electron/25.8.4 Safari/537.36" etag="HMD_oFGY0Dxdew4Fg7tP" version="22.0.2" type="device">
  <diagram name="Page-1" id="PCyodJVRYwXN5UDjGdoO">
    <mxGraphModel dx="3790" dy="3470" grid="1" gridSize="10" guides="1" tooltips="1" connect="1" arrows="1" fold="1" page="1" pageScale="1" pageWidth="850" pageHeight="1100" math="0" shadow="0">
      <root>
        <mxCell id="0" />
        <mxCell id="1" parent="0" />
        <mxCell id="sDI6j86nn-gfoj75YL11-7" style="edgeStyle=orthogonalEdgeStyle;rounded=0;orthogonalLoop=1;jettySize=auto;html=1;exitX=0.5;exitY=1;exitDx=0;exitDy=0;" parent="1" source="sDI6j86nn-gfoj75YL11-8" target="sDI6j86nn-gfoj75YL11-11" edge="1">
          <mxGeometry relative="1" as="geometry" />
        </mxCell>
        <mxCell id="sDI6j86nn-gfoj75YL11-8" value="&lt;p class=&quot;MsoNormal&quot;&gt;Pilihan Menu Admin:&lt;/p&gt;&lt;p class=&quot;MsoNormal&quot;&gt;1. Tampilkan data Pemesanan alat sound system&lt;/p&gt;&lt;br&gt;&lt;p class=&quot;MsoNormal&quot;&gt;2. Ubah data Pemesanan alat sound system&lt;/p&gt;&lt;br&gt;&lt;p class=&quot;MsoNormal&quot;&gt;3. Hapus data Pemesanan alat sound system&lt;/p&gt;&lt;p class=&quot;MsoNormal&quot;&gt;&lt;br&gt;&lt;/p&gt;&lt;p class=&quot;MsoNormal&quot;&gt;4. Kembali ke menu&lt;/p&gt;" style="shape=parallelogram;perimeter=parallelogramPerimeter;whiteSpace=wrap;html=1;fixedSize=1;" parent="1" vertex="1">
          <mxGeometry x="628" y="-106" width="256" height="240" as="geometry" />
        </mxCell>
        <mxCell id="sDI6j86nn-gfoj75YL11-9" value="" style="endArrow=classic;html=1;rounded=0;exitX=0.75;exitY=1;exitDx=0;exitDy=0;" parent="1" source="sDI6j86nn-gfoj75YL11-8" edge="1">
          <mxGeometry width="50" height="50" relative="1" as="geometry">
            <mxPoint x="900" y="134" as="sourcePoint" />
            <mxPoint x="948" y="134" as="targetPoint" />
          </mxGeometry>
        </mxCell>
        <mxCell id="sDI6j86nn-gfoj75YL11-10" style="edgeStyle=orthogonalEdgeStyle;rounded=0;orthogonalLoop=1;jettySize=auto;html=1;exitX=0.5;exitY=1;exitDx=0;exitDy=0;" parent="1" source="sDI6j86nn-gfoj75YL11-11" target="sDI6j86nn-gfoj75YL11-15" edge="1">
          <mxGeometry relative="1" as="geometry" />
        </mxCell>
        <mxCell id="sDI6j86nn-gfoj75YL11-11" value="Masukkan pilihan Anda&lt;span style=&quot;font-size:12.0pt;font-family:&amp;quot;Times New Roman&amp;quot;,serif;&lt;br/&gt;mso-fareast-font-family:&amp;quot;Times New Roman&amp;quot;;mso-font-kerning:0pt;mso-ligatures:&lt;br/&gt;none;mso-ansi-language:EN-US;mso-fareast-language:IN;mso-bidi-language:AR-SA&quot;&gt;&amp;nbsp;(1/2/3/4)&lt;/span&gt;&lt;span style=&quot;font-size:12.0pt;font-family:&amp;quot;Times New Roman&amp;quot;,serif;mso-fareast-font-family:&lt;br/&gt;&amp;quot;Times New Roman&amp;quot;;mso-font-kerning:0pt;mso-ligatures:none;mso-ansi-language:&lt;br/&gt;IN;mso-fareast-language:IN;mso-bidi-language:AR-SA&quot;&gt;:&lt;/span&gt;" style="shape=parallelogram;perimeter=parallelogramPerimeter;whiteSpace=wrap;html=1;fixedSize=1;" parent="1" vertex="1">
          <mxGeometry x="624" y="186" width="264" height="40" as="geometry" />
        </mxCell>
        <mxCell id="sDI6j86nn-gfoj75YL11-12" value="" style="endArrow=classic;html=1;rounded=0;entryX=0.25;entryY=0;entryDx=0;entryDy=0;" parent="1" target="sDI6j86nn-gfoj75YL11-11" edge="1">
          <mxGeometry width="50" height="50" relative="1" as="geometry">
            <mxPoint x="598" y="186" as="sourcePoint" />
            <mxPoint x="638" y="166" as="targetPoint" />
          </mxGeometry>
        </mxCell>
        <mxCell id="sDI6j86nn-gfoj75YL11-13" style="edgeStyle=orthogonalEdgeStyle;rounded=0;orthogonalLoop=1;jettySize=auto;html=1;exitX=1;exitY=0.5;exitDx=0;exitDy=0;entryX=0.5;entryY=0;entryDx=0;entryDy=0;" parent="1" source="sDI6j86nn-gfoj75YL11-15" target="sDI6j86nn-gfoj75YL11-16" edge="1">
          <mxGeometry relative="1" as="geometry" />
        </mxCell>
        <mxCell id="qQKOBEGZIezpXQLUVicA-67" style="edgeStyle=orthogonalEdgeStyle;rounded=0;orthogonalLoop=1;jettySize=auto;html=1;exitX=0;exitY=0.5;exitDx=0;exitDy=0;entryX=0.5;entryY=0;entryDx=0;entryDy=0;" edge="1" parent="1" source="sDI6j86nn-gfoj75YL11-15" target="sDI6j86nn-gfoj75YL11-21">
          <mxGeometry relative="1" as="geometry" />
        </mxCell>
        <mxCell id="sDI6j86nn-gfoj75YL11-15" value="pilih_menu&lt;br/&gt;== &quot;1&quot;" style="rhombus;whiteSpace=wrap;html=1;" parent="1" vertex="1">
          <mxGeometry x="688" y="268" width="136" height="80" as="geometry" />
        </mxCell>
        <mxCell id="qQKOBEGZIezpXQLUVicA-137" style="edgeStyle=orthogonalEdgeStyle;rounded=0;orthogonalLoop=1;jettySize=auto;html=1;exitX=0.5;exitY=1;exitDx=0;exitDy=0;entryX=0.5;entryY=0;entryDx=0;entryDy=0;" edge="1" parent="1" source="sDI6j86nn-gfoj75YL11-16" target="O7LQs1WoaMsfzM6fXdnC-129">
          <mxGeometry relative="1" as="geometry">
            <mxPoint x="963.666666666667" y="1040" as="targetPoint" />
            <Array as="points">
              <mxPoint x="970" y="386" />
            </Array>
          </mxGeometry>
        </mxCell>
        <mxCell id="qQKOBEGZIezpXQLUVicA-183" style="edgeStyle=orthogonalEdgeStyle;rounded=0;orthogonalLoop=1;jettySize=auto;html=1;exitX=1;exitY=1;exitDx=0;exitDy=0;" edge="1" parent="1" source="sDI6j86nn-gfoj75YL11-16">
          <mxGeometry relative="1" as="geometry">
            <mxPoint x="1070" y="378.75" as="targetPoint" />
          </mxGeometry>
        </mxCell>
        <mxCell id="sDI6j86nn-gfoj75YL11-16" value="tampilkan data pemesanan alat" style="shape=parallelogram;perimeter=parallelogramPerimeter;whiteSpace=wrap;html=1;fixedSize=1;" parent="1" vertex="1">
          <mxGeometry x="900" y="330" width="128" height="56" as="geometry" />
        </mxCell>
        <mxCell id="sDI6j86nn-gfoj75YL11-20" style="edgeStyle=orthogonalEdgeStyle;rounded=0;orthogonalLoop=1;jettySize=auto;html=1;exitX=1;exitY=0.5;exitDx=0;exitDy=0;" parent="1" source="sDI6j86nn-gfoj75YL11-21" target="sDI6j86nn-gfoj75YL11-28" edge="1">
          <mxGeometry relative="1" as="geometry" />
        </mxCell>
        <mxCell id="qQKOBEGZIezpXQLUVicA-70" style="edgeStyle=orthogonalEdgeStyle;rounded=0;orthogonalLoop=1;jettySize=auto;html=1;exitX=0;exitY=0.5;exitDx=0;exitDy=0;entryX=0.5;entryY=0;entryDx=0;entryDy=0;" edge="1" parent="1" source="sDI6j86nn-gfoj75YL11-21" target="sDI6j86nn-gfoj75YL11-25">
          <mxGeometry relative="1" as="geometry" />
        </mxCell>
        <mxCell id="sDI6j86nn-gfoj75YL11-21" value="pilih_menu&lt;br&gt;== &quot;2&quot;" style="rhombus;whiteSpace=wrap;html=1;" parent="1" vertex="1">
          <mxGeometry x="552" y="354" width="136" height="80" as="geometry" />
        </mxCell>
        <mxCell id="sDI6j86nn-gfoj75YL11-22" style="edgeStyle=orthogonalEdgeStyle;rounded=0;orthogonalLoop=1;jettySize=auto;html=1;exitX=1;exitY=0.5;exitDx=0;exitDy=0;entryX=0.5;entryY=0;entryDx=0;entryDy=0;" parent="1" source="sDI6j86nn-gfoj75YL11-25" target="sDI6j86nn-gfoj75YL11-29" edge="1">
          <mxGeometry relative="1" as="geometry" />
        </mxCell>
        <mxCell id="sDI6j86nn-gfoj75YL11-24" style="edgeStyle=orthogonalEdgeStyle;rounded=0;orthogonalLoop=1;jettySize=auto;html=1;exitX=0;exitY=0.5;exitDx=0;exitDy=0;entryX=0.5;entryY=0;entryDx=0;entryDy=0;" parent="1" source="sDI6j86nn-gfoj75YL11-25" target="qQKOBEGZIezpXQLUVicA-71" edge="1">
          <mxGeometry relative="1" as="geometry">
            <mxPoint x="330" y="574" as="targetPoint" />
          </mxGeometry>
        </mxCell>
        <mxCell id="sDI6j86nn-gfoj75YL11-25" value="pilih_menu&lt;br&gt;== &quot;3&quot;" style="rhombus;whiteSpace=wrap;html=1;" parent="1" vertex="1">
          <mxGeometry x="374" y="460" width="136" height="80" as="geometry" />
        </mxCell>
        <mxCell id="sDI6j86nn-gfoj75YL11-27" style="edgeStyle=orthogonalEdgeStyle;rounded=0;orthogonalLoop=1;jettySize=auto;html=1;exitX=0.5;exitY=1;exitDx=0;exitDy=0;entryX=0.5;entryY=0;entryDx=0;entryDy=0;" parent="1" source="sDI6j86nn-gfoj75YL11-28" target="sDI6j86nn-gfoj75YL11-31" edge="1">
          <mxGeometry relative="1" as="geometry" />
        </mxCell>
        <mxCell id="sDI6j86nn-gfoj75YL11-28" value="&lt;p class=&quot;MsoNormal&quot;&gt;Masukkan id user yang ingin di ubah:&lt;/p&gt;" style="shape=parallelogram;perimeter=parallelogramPerimeter;whiteSpace=wrap;html=1;fixedSize=1;" parent="1" vertex="1">
          <mxGeometry x="738" y="450" width="160" height="58" as="geometry" />
        </mxCell>
        <mxCell id="qQKOBEGZIezpXQLUVicA-115" value="" style="edgeStyle=orthogonalEdgeStyle;rounded=0;orthogonalLoop=1;jettySize=auto;html=1;" edge="1" parent="1" source="sDI6j86nn-gfoj75YL11-29" target="qQKOBEGZIezpXQLUVicA-116">
          <mxGeometry relative="1" as="geometry">
            <mxPoint x="590" y="714" as="targetPoint" />
          </mxGeometry>
        </mxCell>
        <mxCell id="sDI6j86nn-gfoj75YL11-29" value="&lt;p class=&quot;MsoNormal&quot;&gt;Masukkan Nama user yang ingin di hapus:&lt;/p&gt;" style="shape=parallelogram;perimeter=parallelogramPerimeter;whiteSpace=wrap;html=1;fixedSize=1;" parent="1" vertex="1">
          <mxGeometry x="490" y="574" width="200" height="60" as="geometry" />
        </mxCell>
        <mxCell id="qQKOBEGZIezpXQLUVicA-88" style="edgeStyle=orthogonalEdgeStyle;rounded=0;orthogonalLoop=1;jettySize=auto;html=1;exitX=0.5;exitY=1;exitDx=0;exitDy=0;" edge="1" parent="1" source="sDI6j86nn-gfoj75YL11-31" target="qQKOBEGZIezpXQLUVicA-89">
          <mxGeometry relative="1" as="geometry">
            <mxPoint x="817.5" y="685" as="targetPoint" />
          </mxGeometry>
        </mxCell>
        <mxCell id="sDI6j86nn-gfoj75YL11-31" value="&lt;p class=&quot;MsoNormal&quot;&gt;Masukkan Alat baru yang ingin di pesan:&lt;/p&gt;" style="shape=parallelogram;perimeter=parallelogramPerimeter;whiteSpace=wrap;html=1;fixedSize=1;" parent="1" vertex="1">
          <mxGeometry x="736" y="582" width="164" height="50" as="geometry" />
        </mxCell>
        <mxCell id="sDI6j86nn-gfoj75YL11-34" value="" style="endArrow=classic;html=1;rounded=0;entryX=0.25;entryY=0;entryDx=0;entryDy=0;" parent="1" edge="1">
          <mxGeometry width="50" height="50" relative="1" as="geometry">
            <mxPoint x="720" y="450" as="sourcePoint" />
            <mxPoint x="814" y="450" as="targetPoint" />
          </mxGeometry>
        </mxCell>
        <mxCell id="sDI6j86nn-gfoj75YL11-35" value="" style="endArrow=classic;html=1;rounded=0;entryX=0.25;entryY=0;entryDx=0;entryDy=0;" parent="1" edge="1">
          <mxGeometry width="50" height="50" relative="1" as="geometry">
            <mxPoint x="736" y="582" as="sourcePoint" />
            <mxPoint x="814" y="582" as="targetPoint" />
          </mxGeometry>
        </mxCell>
        <mxCell id="sDI6j86nn-gfoj75YL11-36" value="" style="endArrow=classic;html=1;rounded=0;entryX=0.25;entryY=0;entryDx=0;entryDy=0;" parent="1" edge="1">
          <mxGeometry width="50" height="50" relative="1" as="geometry">
            <mxPoint x="490" y="573.17" as="sourcePoint" />
            <mxPoint x="584" y="573.17" as="targetPoint" />
          </mxGeometry>
        </mxCell>
        <mxCell id="qQKOBEGZIezpXQLUVicA-15" value="" style="edgeStyle=orthogonalEdgeStyle;rounded=0;orthogonalLoop=1;jettySize=auto;html=1;entryX=0.5;entryY=0;entryDx=0;entryDy=0;" edge="1" parent="1" source="O7LQs1WoaMsfzM6fXdnC-32" target="O7LQs1WoaMsfzM6fXdnC-38">
          <mxGeometry relative="1" as="geometry">
            <mxPoint x="1975.5" y="-280" as="targetPoint" />
          </mxGeometry>
        </mxCell>
        <mxCell id="qQKOBEGZIezpXQLUVicA-20" style="edgeStyle=orthogonalEdgeStyle;rounded=0;orthogonalLoop=1;jettySize=auto;html=1;exitX=0;exitY=0.5;exitDx=0;exitDy=0;entryX=0.5;entryY=0;entryDx=0;entryDy=0;" edge="1" parent="1" source="O7LQs1WoaMsfzM6fXdnC-32">
          <mxGeometry relative="1" as="geometry">
            <mxPoint x="382" y="-280" as="targetPoint" />
            <Array as="points">
              <mxPoint x="382" y="-310" />
            </Array>
          </mxGeometry>
        </mxCell>
        <mxCell id="O7LQs1WoaMsfzM6fXdnC-32" value="a == User" style="rhombus;whiteSpace=wrap;html=1;" parent="1" vertex="1">
          <mxGeometry x="960.75" y="-370" width="171.5" height="130" as="geometry" />
        </mxCell>
        <mxCell id="8om0vuzCokEeq5N41jvd-5" style="edgeStyle=orthogonalEdgeStyle;rounded=0;orthogonalLoop=1;jettySize=auto;html=1;exitX=0.5;exitY=1;exitDx=0;exitDy=0;" parent="1" source="O7LQs1WoaMsfzM6fXdnC-38" target="O7LQs1WoaMsfzM6fXdnC-41" edge="1">
          <mxGeometry relative="1" as="geometry" />
        </mxCell>
        <mxCell id="qQKOBEGZIezpXQLUVicA-181" style="edgeStyle=orthogonalEdgeStyle;rounded=0;orthogonalLoop=1;jettySize=auto;html=1;exitX=1;exitY=1;exitDx=0;exitDy=0;" edge="1" parent="1" source="O7LQs1WoaMsfzM6fXdnC-38">
          <mxGeometry relative="1" as="geometry">
            <mxPoint x="2190" y="94" as="targetPoint" />
          </mxGeometry>
        </mxCell>
        <mxCell id="O7LQs1WoaMsfzM6fXdnC-38" value="&lt;p class=&quot;MsoNormal&quot;&gt;Pilihan menu User :&lt;/p&gt;&lt;p class=&quot;MsoNormal&quot;&gt;1. Tampilkan data Pemesanan alat sound system&lt;/p&gt;&lt;br&gt;&lt;p class=&quot;MsoNormal&quot;&gt;2. Pemesanan Alat&lt;/p&gt;&lt;br&gt;&lt;p class=&quot;MsoNormal&quot;&gt;3. logout sebagai user&lt;/p&gt;" style="shape=parallelogram;perimeter=parallelogramPerimeter;whiteSpace=wrap;html=1;fixedSize=1;" parent="1" vertex="1">
          <mxGeometry x="1847.5" y="-129" width="256" height="240" as="geometry" />
        </mxCell>
        <mxCell id="qQKOBEGZIezpXQLUVicA-40" value="" style="edgeStyle=orthogonalEdgeStyle;rounded=0;orthogonalLoop=1;jettySize=auto;html=1;" edge="1" parent="1" source="O7LQs1WoaMsfzM6fXdnC-41" target="O7LQs1WoaMsfzM6fXdnC-44">
          <mxGeometry relative="1" as="geometry" />
        </mxCell>
        <mxCell id="qQKOBEGZIezpXQLUVicA-180" style="edgeStyle=orthogonalEdgeStyle;rounded=0;orthogonalLoop=1;jettySize=auto;html=1;exitX=1;exitY=1;exitDx=0;exitDy=0;" edge="1" parent="1" source="O7LQs1WoaMsfzM6fXdnC-41">
          <mxGeometry relative="1" as="geometry">
            <mxPoint x="2070" y="201.47826086956547" as="targetPoint" />
          </mxGeometry>
        </mxCell>
        <mxCell id="O7LQs1WoaMsfzM6fXdnC-41" value="Masukkan pilihan Anda (1/2/3)" style="shape=parallelogram;perimeter=parallelogramPerimeter;whiteSpace=wrap;html=1;fixedSize=1;" parent="1" vertex="1">
          <mxGeometry x="1915.5" y="150" width="120" height="60" as="geometry" />
        </mxCell>
        <mxCell id="O7LQs1WoaMsfzM6fXdnC-48" style="edgeStyle=orthogonalEdgeStyle;rounded=0;orthogonalLoop=1;jettySize=auto;html=1;exitX=0;exitY=0.5;exitDx=0;exitDy=0;" parent="1" source="O7LQs1WoaMsfzM6fXdnC-44" target="O7LQs1WoaMsfzM6fXdnC-47" edge="1">
          <mxGeometry relative="1" as="geometry" />
        </mxCell>
        <mxCell id="O7LQs1WoaMsfzM6fXdnC-58" style="edgeStyle=orthogonalEdgeStyle;rounded=0;orthogonalLoop=1;jettySize=auto;html=1;exitX=1;exitY=0.5;exitDx=0;exitDy=0;" parent="1" source="O7LQs1WoaMsfzM6fXdnC-44" target="O7LQs1WoaMsfzM6fXdnC-57" edge="1">
          <mxGeometry relative="1" as="geometry" />
        </mxCell>
        <mxCell id="O7LQs1WoaMsfzM6fXdnC-44" value="pilihan == 1" style="rhombus;whiteSpace=wrap;html=1;" parent="1" vertex="1">
          <mxGeometry x="1896.5" y="240" width="158" height="80" as="geometry" />
        </mxCell>
        <mxCell id="O7LQs1WoaMsfzM6fXdnC-60" style="edgeStyle=orthogonalEdgeStyle;rounded=0;orthogonalLoop=1;jettySize=auto;html=1;exitX=0;exitY=0.5;exitDx=0;exitDy=0;entryX=0.5;entryY=0;entryDx=0;entryDy=0;" parent="1" source="O7LQs1WoaMsfzM6fXdnC-47" target="O7LQs1WoaMsfzM6fXdnC-59" edge="1">
          <mxGeometry relative="1" as="geometry" />
        </mxCell>
        <mxCell id="O7LQs1WoaMsfzM6fXdnC-86" style="edgeStyle=orthogonalEdgeStyle;rounded=0;orthogonalLoop=1;jettySize=auto;html=1;exitX=1;exitY=0.5;exitDx=0;exitDy=0;entryX=0.5;entryY=0;entryDx=0;entryDy=0;" parent="1" source="O7LQs1WoaMsfzM6fXdnC-47" target="O7LQs1WoaMsfzM6fXdnC-74" edge="1">
          <mxGeometry relative="1" as="geometry" />
        </mxCell>
        <mxCell id="O7LQs1WoaMsfzM6fXdnC-47" value="pilihan == 2" style="rhombus;whiteSpace=wrap;html=1;" parent="1" vertex="1">
          <mxGeometry x="1742" y="354" width="160" height="80" as="geometry" />
        </mxCell>
        <mxCell id="qQKOBEGZIezpXQLUVicA-179" style="edgeStyle=orthogonalEdgeStyle;rounded=0;orthogonalLoop=1;jettySize=auto;html=1;exitX=1;exitY=1;exitDx=0;exitDy=0;" edge="1" parent="1" source="O7LQs1WoaMsfzM6fXdnC-57">
          <mxGeometry relative="1" as="geometry">
            <mxPoint x="2260" y="405.826086956522" as="targetPoint" />
          </mxGeometry>
        </mxCell>
        <mxCell id="O7LQs1WoaMsfzM6fXdnC-57" value="Tampilkan data yang sudah di masukkan di database" style="shape=parallelogram;perimeter=parallelogramPerimeter;whiteSpace=wrap;html=1;fixedSize=1;" parent="1" vertex="1">
          <mxGeometry x="2098" y="354" width="120" height="60" as="geometry" />
        </mxCell>
        <mxCell id="qQKOBEGZIezpXQLUVicA-54" style="edgeStyle=orthogonalEdgeStyle;rounded=0;orthogonalLoop=1;jettySize=auto;html=1;exitX=0;exitY=0.5;exitDx=0;exitDy=0;" edge="1" parent="1" source="O7LQs1WoaMsfzM6fXdnC-59" target="qQKOBEGZIezpXQLUVicA-55">
          <mxGeometry relative="1" as="geometry">
            <mxPoint x="1480" y="640" as="targetPoint" />
          </mxGeometry>
        </mxCell>
        <mxCell id="O7LQs1WoaMsfzM6fXdnC-59" value="pilihan == 3" style="rhombus;whiteSpace=wrap;html=1;" parent="1" vertex="1">
          <mxGeometry x="1506" y="506" width="190" height="71" as="geometry" />
        </mxCell>
        <mxCell id="O7LQs1WoaMsfzM6fXdnC-103" style="edgeStyle=orthogonalEdgeStyle;rounded=0;orthogonalLoop=1;jettySize=auto;html=1;exitX=0.5;exitY=1;exitDx=0;exitDy=0;entryX=0.5;entryY=0;entryDx=0;entryDy=0;" parent="1" source="O7LQs1WoaMsfzM6fXdnC-74" edge="1" target="O7LQs1WoaMsfzM6fXdnC-104">
          <mxGeometry relative="1" as="geometry">
            <mxPoint x="1988.4705882352941" y="547.0135746606334" as="targetPoint" />
          </mxGeometry>
        </mxCell>
        <mxCell id="O7LQs1WoaMsfzM6fXdnC-74" value="Masukkan Nama Anda :" style="shape=parallelogram;perimeter=parallelogramPerimeter;whiteSpace=wrap;html=1;fixedSize=1;" parent="1" vertex="1">
          <mxGeometry x="1929" y="434" width="120" height="60" as="geometry" />
        </mxCell>
        <mxCell id="O7LQs1WoaMsfzM6fXdnC-120" style="edgeStyle=orthogonalEdgeStyle;rounded=0;orthogonalLoop=1;jettySize=auto;html=1;exitX=0.5;exitY=1;exitDx=0;exitDy=0;" parent="1" source="O7LQs1WoaMsfzM6fXdnC-104" target="qQKOBEGZIezpXQLUVicA-50" edge="1">
          <mxGeometry relative="1" as="geometry">
            <mxPoint x="1989" y="670" as="targetPoint" />
          </mxGeometry>
        </mxCell>
        <mxCell id="O7LQs1WoaMsfzM6fXdnC-104" value="Masukkan Alat Yang Ingin Anda pesan :" style="shape=parallelogram;perimeter=parallelogramPerimeter;whiteSpace=wrap;html=1;fixedSize=1;" parent="1" vertex="1">
          <mxGeometry x="1894" y="552" width="190" height="60" as="geometry" />
        </mxCell>
        <mxCell id="qQKOBEGZIezpXQLUVicA-36" value="" style="edgeStyle=orthogonalEdgeStyle;rounded=0;orthogonalLoop=1;jettySize=auto;html=1;" edge="1" parent="1" source="O7LQs1WoaMsfzM6fXdnC-108" target="O7LQs1WoaMsfzM6fXdnC-32">
          <mxGeometry relative="1" as="geometry" />
        </mxCell>
        <mxCell id="O7LQs1WoaMsfzM6fXdnC-108" value="database" style="shape=cylinder3;whiteSpace=wrap;html=1;boundedLbl=1;backgroundOutline=1;size=15;" parent="1" vertex="1">
          <mxGeometry x="1016.5" y="-530" width="60" height="80" as="geometry" />
        </mxCell>
        <mxCell id="O7LQs1WoaMsfzM6fXdnC-129" value="end" style="ellipse;whiteSpace=wrap;html=1;" parent="1" vertex="1">
          <mxGeometry x="910" y="1060" width="120" height="80" as="geometry" />
        </mxCell>
        <mxCell id="qQKOBEGZIezpXQLUVicA-44" value="" style="edgeStyle=orthogonalEdgeStyle;rounded=0;orthogonalLoop=1;jettySize=auto;html=1;" edge="1" parent="1" source="O7LQs1WoaMsfzM6fXdnC-133" target="8om0vuzCokEeq5N41jvd-19">
          <mxGeometry relative="1" as="geometry" />
        </mxCell>
        <mxCell id="O7LQs1WoaMsfzM6fXdnC-133" value="start" style="ellipse;whiteSpace=wrap;html=1;" parent="1" vertex="1">
          <mxGeometry x="785" y="-1370" width="120" height="80" as="geometry" />
        </mxCell>
        <mxCell id="8om0vuzCokEeq5N41jvd-8" style="edgeStyle=orthogonalEdgeStyle;rounded=0;orthogonalLoop=1;jettySize=auto;html=1;entryX=0.59;entryY=0.044;entryDx=0;entryDy=0;entryPerimeter=0;exitX=0.966;exitY=0.461;exitDx=0;exitDy=0;exitPerimeter=0;" parent="1" source="O7LQs1WoaMsfzM6fXdnC-59" edge="1">
          <mxGeometry relative="1" as="geometry">
            <mxPoint x="1697" y="539" as="sourcePoint" />
            <mxPoint x="1813.7999999999997" y="589.6400000000003" as="targetPoint" />
          </mxGeometry>
        </mxCell>
        <mxCell id="8om0vuzCokEeq5N41jvd-36" style="edgeStyle=orthogonalEdgeStyle;rounded=0;orthogonalLoop=1;jettySize=auto;html=1;exitX=0.5;exitY=1;exitDx=0;exitDy=0;" parent="1" source="8om0vuzCokEeq5N41jvd-19" target="8om0vuzCokEeq5N41jvd-21" edge="1">
          <mxGeometry relative="1" as="geometry" />
        </mxCell>
        <mxCell id="8om0vuzCokEeq5N41jvd-24" style="edgeStyle=orthogonalEdgeStyle;rounded=0;orthogonalLoop=1;jettySize=auto;html=1;exitX=1;exitY=0.5;exitDx=0;exitDy=0;entryX=0.5;entryY=0;entryDx=0;entryDy=0;" parent="1" source="8om0vuzCokEeq5N41jvd-20" edge="1">
          <mxGeometry relative="1" as="geometry">
            <mxPoint x="1050" y="-870" as="targetPoint" />
          </mxGeometry>
        </mxCell>
        <mxCell id="8om0vuzCokEeq5N41jvd-28" style="edgeStyle=orthogonalEdgeStyle;rounded=0;orthogonalLoop=1;jettySize=auto;html=1;exitX=0;exitY=0.5;exitDx=0;exitDy=0;entryX=0.5;entryY=0;entryDx=0;entryDy=0;" parent="1" source="8om0vuzCokEeq5N41jvd-20" target="8om0vuzCokEeq5N41jvd-27" edge="1">
          <mxGeometry relative="1" as="geometry" />
        </mxCell>
        <mxCell id="8om0vuzCokEeq5N41jvd-20" value="pilihan == 1" style="rhombus;whiteSpace=wrap;html=1;" parent="1" vertex="1">
          <mxGeometry x="805" y="-960" width="80" height="80" as="geometry" />
        </mxCell>
        <mxCell id="8om0vuzCokEeq5N41jvd-22" style="edgeStyle=orthogonalEdgeStyle;rounded=0;orthogonalLoop=1;jettySize=auto;html=1;exitX=0.5;exitY=1;exitDx=0;exitDy=0;entryX=0.5;entryY=0;entryDx=0;entryDy=0;" parent="1" source="8om0vuzCokEeq5N41jvd-21" target="8om0vuzCokEeq5N41jvd-20" edge="1">
          <mxGeometry relative="1" as="geometry" />
        </mxCell>
        <mxCell id="8om0vuzCokEeq5N41jvd-37" style="edgeStyle=orthogonalEdgeStyle;rounded=0;orthogonalLoop=1;jettySize=auto;html=1;exitX=0.5;exitY=1;exitDx=0;exitDy=0;" parent="1" source="8om0vuzCokEeq5N41jvd-21" target="8om0vuzCokEeq5N41jvd-20" edge="1">
          <mxGeometry relative="1" as="geometry" />
        </mxCell>
        <mxCell id="qQKOBEGZIezpXQLUVicA-194" style="edgeStyle=orthogonalEdgeStyle;rounded=0;orthogonalLoop=1;jettySize=auto;html=1;exitX=1;exitY=1;exitDx=0;exitDy=0;" edge="1" parent="1" source="8om0vuzCokEeq5N41jvd-21">
          <mxGeometry relative="1" as="geometry">
            <mxPoint x="960" y="-1008.75" as="targetPoint" />
          </mxGeometry>
        </mxCell>
        <mxCell id="8om0vuzCokEeq5N41jvd-21" value="Masukkan Pilihan (1/2/3):" style="shape=parallelogram;perimeter=parallelogramPerimeter;whiteSpace=wrap;html=1;fixedSize=1;" parent="1" vertex="1">
          <mxGeometry x="785" y="-1060" width="120" height="60" as="geometry" />
        </mxCell>
        <mxCell id="qQKOBEGZIezpXQLUVicA-93" style="edgeStyle=orthogonalEdgeStyle;rounded=0;orthogonalLoop=1;jettySize=auto;html=1;exitX=1;exitY=0.5;exitDx=0;exitDy=0;entryX=0.5;entryY=0;entryDx=0;entryDy=0;" edge="1" parent="1" source="8om0vuzCokEeq5N41jvd-27" target="qQKOBEGZIezpXQLUVicA-27">
          <mxGeometry relative="1" as="geometry" />
        </mxCell>
        <mxCell id="qQKOBEGZIezpXQLUVicA-103" style="edgeStyle=orthogonalEdgeStyle;rounded=0;orthogonalLoop=1;jettySize=auto;html=1;exitX=0;exitY=0.5;exitDx=0;exitDy=0;" edge="1" parent="1" source="8om0vuzCokEeq5N41jvd-27" target="qQKOBEGZIezpXQLUVicA-199">
          <mxGeometry relative="1" as="geometry">
            <mxPoint x="-1094.9090909090914" y="-780" as="targetPoint" />
          </mxGeometry>
        </mxCell>
        <mxCell id="8om0vuzCokEeq5N41jvd-27" value="pilihan == 2" style="rhombus;whiteSpace=wrap;html=1;" parent="1" vertex="1">
          <mxGeometry x="-796" y="-870" width="80" height="80" as="geometry" />
        </mxCell>
        <mxCell id="qQKOBEGZIezpXQLUVicA-33" value="" style="edgeStyle=orthogonalEdgeStyle;rounded=0;orthogonalLoop=1;jettySize=auto;html=1;" edge="1" parent="1" source="8om0vuzCokEeq5N41jvd-29" target="8om0vuzCokEeq5N41jvd-32">
          <mxGeometry relative="1" as="geometry" />
        </mxCell>
        <mxCell id="8om0vuzCokEeq5N41jvd-29" value="Masukkan Nama Yang sudah terdaftar :" style="shape=parallelogram;perimeter=parallelogramPerimeter;whiteSpace=wrap;html=1;fixedSize=1;" parent="1" vertex="1">
          <mxGeometry x="964" y="-870" width="165" height="60" as="geometry" />
        </mxCell>
        <mxCell id="qQKOBEGZIezpXQLUVicA-34" value="" style="edgeStyle=orthogonalEdgeStyle;rounded=0;orthogonalLoop=1;jettySize=auto;html=1;" edge="1" parent="1" source="8om0vuzCokEeq5N41jvd-32" target="qQKOBEGZIezpXQLUVicA-3">
          <mxGeometry relative="1" as="geometry" />
        </mxCell>
        <mxCell id="8om0vuzCokEeq5N41jvd-32" value="Masukkan Password yang sudah terdaftar :" style="shape=parallelogram;perimeter=parallelogramPerimeter;whiteSpace=wrap;html=1;fixedSize=1;" parent="1" vertex="1">
          <mxGeometry x="986.4985714285715" y="-750" width="120" height="60" as="geometry" />
        </mxCell>
        <mxCell id="qQKOBEGZIezpXQLUVicA-195" style="edgeStyle=orthogonalEdgeStyle;rounded=0;orthogonalLoop=1;jettySize=auto;html=1;exitX=1;exitY=0.75;exitDx=0;exitDy=0;" edge="1" parent="1" source="8om0vuzCokEeq5N41jvd-19">
          <mxGeometry relative="1" as="geometry">
            <mxPoint x="1010" y="-1132.5" as="targetPoint" />
          </mxGeometry>
        </mxCell>
        <mxCell id="8om0vuzCokEeq5N41jvd-19" value="Menu tampilan:&lt;br&gt;1. Logini&lt;br&gt;2.Registrasi&lt;br&gt;3.Keluar" style="shape=parallelogram;perimeter=parallelogramPerimeter;whiteSpace=wrap;html=1;fixedSize=1;" parent="1" vertex="1">
          <mxGeometry x="738.5" y="-1190" width="213" height="80" as="geometry" />
        </mxCell>
        <mxCell id="qQKOBEGZIezpXQLUVicA-35" value="" style="edgeStyle=orthogonalEdgeStyle;rounded=0;orthogonalLoop=1;jettySize=auto;html=1;" edge="1" parent="1" source="qQKOBEGZIezpXQLUVicA-3" target="O7LQs1WoaMsfzM6fXdnC-108">
          <mxGeometry relative="1" as="geometry" />
        </mxCell>
        <mxCell id="qQKOBEGZIezpXQLUVicA-3" value="Mengecek Data" style="rounded=0;whiteSpace=wrap;html=1;" vertex="1" parent="1">
          <mxGeometry x="986.5" y="-640" width="120" height="60" as="geometry" />
        </mxCell>
        <mxCell id="qQKOBEGZIezpXQLUVicA-65" style="edgeStyle=orthogonalEdgeStyle;rounded=0;orthogonalLoop=1;jettySize=auto;html=1;exitX=1;exitY=0.5;exitDx=0;exitDy=0;" edge="1" parent="1" target="sDI6j86nn-gfoj75YL11-8">
          <mxGeometry relative="1" as="geometry">
            <mxPoint x="422" y="-240" as="sourcePoint" />
            <mxPoint x="504" y="-170" as="targetPoint" />
          </mxGeometry>
        </mxCell>
        <mxCell id="sDI6j86nn-gfoj75YL11-32" value="" style="endArrow=classic;html=1;rounded=0;entryX=0.25;entryY=0;entryDx=0;entryDy=0;" parent="1" edge="1">
          <mxGeometry width="50" height="50" relative="1" as="geometry">
            <mxPoint x="1888.5" y="434" as="sourcePoint" />
            <mxPoint x="1982.5" y="434" as="targetPoint" />
          </mxGeometry>
        </mxCell>
        <mxCell id="qQKOBEGZIezpXQLUVicA-26" style="edgeStyle=orthogonalEdgeStyle;rounded=0;orthogonalLoop=1;jettySize=auto;html=1;exitX=0.5;exitY=1;exitDx=0;exitDy=0;" edge="1" parent="1" source="qQKOBEGZIezpXQLUVicA-27" target="qQKOBEGZIezpXQLUVicA-29">
          <mxGeometry relative="1" as="geometry">
            <mxPoint x="-555.4242857142858" y="-640" as="targetPoint" />
          </mxGeometry>
        </mxCell>
        <mxCell id="qQKOBEGZIezpXQLUVicA-27" value="Masukkan Nama Anda :&amp;nbsp;" style="shape=parallelogram;perimeter=parallelogramPerimeter;whiteSpace=wrap;html=1;fixedSize=1;" vertex="1" parent="1">
          <mxGeometry x="-615.71" y="-780" width="120" height="60" as="geometry" />
        </mxCell>
        <mxCell id="qQKOBEGZIezpXQLUVicA-28" value="" style="edgeStyle=orthogonalEdgeStyle;rounded=0;orthogonalLoop=1;jettySize=auto;html=1;" edge="1" parent="1" source="qQKOBEGZIezpXQLUVicA-29" target="qQKOBEGZIezpXQLUVicA-31">
          <mxGeometry relative="1" as="geometry" />
        </mxCell>
        <mxCell id="qQKOBEGZIezpXQLUVicA-29" value="Masukkan Password Anda :&amp;nbsp;" style="shape=parallelogram;perimeter=parallelogramPerimeter;whiteSpace=wrap;html=1;fixedSize=1;" vertex="1" parent="1">
          <mxGeometry x="-615.4242857142858" y="-670" width="120" height="60" as="geometry" />
        </mxCell>
        <mxCell id="qQKOBEGZIezpXQLUVicA-94" value="" style="edgeStyle=orthogonalEdgeStyle;rounded=0;orthogonalLoop=1;jettySize=auto;html=1;" edge="1" parent="1" source="qQKOBEGZIezpXQLUVicA-31" target="qQKOBEGZIezpXQLUVicA-32">
          <mxGeometry relative="1" as="geometry" />
        </mxCell>
        <mxCell id="qQKOBEGZIezpXQLUVicA-31" value="Login Sebagai (admin/user)" style="shape=parallelogram;perimeter=parallelogramPerimeter;whiteSpace=wrap;html=1;fixedSize=1;" vertex="1" parent="1">
          <mxGeometry x="-615.4200000000001" y="-570" width="120" height="60" as="geometry" />
        </mxCell>
        <mxCell id="qQKOBEGZIezpXQLUVicA-98" style="edgeStyle=orthogonalEdgeStyle;rounded=0;orthogonalLoop=1;jettySize=auto;html=1;exitX=1;exitY=0.5;exitDx=0;exitDy=0;" edge="1" parent="1" source="qQKOBEGZIezpXQLUVicA-32">
          <mxGeometry relative="1" as="geometry">
            <mxPoint x="-199.9333333333334" y="-360.00000000000045" as="targetPoint" />
          </mxGeometry>
        </mxCell>
        <mxCell id="qQKOBEGZIezpXQLUVicA-101" style="edgeStyle=orthogonalEdgeStyle;rounded=0;orthogonalLoop=1;jettySize=auto;html=1;exitX=0;exitY=0.5;exitDx=0;exitDy=0;" edge="1" parent="1" source="qQKOBEGZIezpXQLUVicA-32" target="qQKOBEGZIezpXQLUVicA-102">
          <mxGeometry relative="1" as="geometry">
            <mxPoint x="-880" y="-360" as="targetPoint" />
          </mxGeometry>
        </mxCell>
        <mxCell id="qQKOBEGZIezpXQLUVicA-32" value="a==User or a == admin" style="rhombus;whiteSpace=wrap;html=1;" vertex="1" parent="1">
          <mxGeometry x="-625.5699999999999" y="-480" width="140.29" height="90" as="geometry" />
        </mxCell>
        <mxCell id="qQKOBEGZIezpXQLUVicA-37" value="True" style="text;html=1;strokeColor=none;fillColor=none;align=center;verticalAlign=middle;whiteSpace=wrap;rounded=0;" vertex="1" parent="1">
          <mxGeometry x="940" y="-950" width="60" height="30" as="geometry" />
        </mxCell>
        <mxCell id="qQKOBEGZIezpXQLUVicA-38" value="False" style="text;html=1;strokeColor=none;fillColor=none;align=center;verticalAlign=middle;whiteSpace=wrap;rounded=0;" vertex="1" parent="1">
          <mxGeometry x="714" y="-950" width="60" height="30" as="geometry" />
        </mxCell>
        <mxCell id="qQKOBEGZIezpXQLUVicA-52" value="" style="edgeStyle=orthogonalEdgeStyle;rounded=0;orthogonalLoop=1;jettySize=auto;html=1;" edge="1" parent="1" source="qQKOBEGZIezpXQLUVicA-50" target="qQKOBEGZIezpXQLUVicA-51">
          <mxGeometry relative="1" as="geometry" />
        </mxCell>
        <mxCell id="qQKOBEGZIezpXQLUVicA-50" value="Database" style="shape=cylinder3;whiteSpace=wrap;html=1;boundedLbl=1;backgroundOutline=1;size=15;" vertex="1" parent="1">
          <mxGeometry x="1959" y="630" width="60" height="80" as="geometry" />
        </mxCell>
        <mxCell id="qQKOBEGZIezpXQLUVicA-57" style="edgeStyle=orthogonalEdgeStyle;rounded=0;orthogonalLoop=1;jettySize=auto;html=1;exitX=1;exitY=1;exitDx=0;exitDy=0;" edge="1" parent="1" source="qQKOBEGZIezpXQLUVicA-51">
          <mxGeometry relative="1" as="geometry">
            <mxPoint x="2120" y="792.5" as="targetPoint" />
          </mxGeometry>
        </mxCell>
        <mxCell id="qQKOBEGZIezpXQLUVicA-51" value="Output Nama dan alat yang di pesan" style="shape=parallelogram;perimeter=parallelogramPerimeter;whiteSpace=wrap;html=1;fixedSize=1;" vertex="1" parent="1">
          <mxGeometry x="1913.5" y="740" width="151" height="60" as="geometry" />
        </mxCell>
        <mxCell id="qQKOBEGZIezpXQLUVicA-178" style="edgeStyle=orthogonalEdgeStyle;rounded=0;orthogonalLoop=1;jettySize=auto;html=1;exitX=1;exitY=0.75;exitDx=0;exitDy=0;" edge="1" parent="1" source="qQKOBEGZIezpXQLUVicA-53">
          <mxGeometry relative="1" as="geometry">
            <mxPoint x="1900" y="631.913043478261" as="targetPoint" />
          </mxGeometry>
        </mxCell>
        <mxCell id="qQKOBEGZIezpXQLUVicA-53" value="Exit" style="shape=parallelogram;perimeter=parallelogramPerimeter;whiteSpace=wrap;html=1;fixedSize=1;" vertex="1" parent="1">
          <mxGeometry x="1742" y="590" width="120" height="60" as="geometry" />
        </mxCell>
        <mxCell id="qQKOBEGZIezpXQLUVicA-177" style="edgeStyle=orthogonalEdgeStyle;rounded=0;orthogonalLoop=1;jettySize=auto;html=1;exitX=1;exitY=0.75;exitDx=0;exitDy=0;" edge="1" parent="1" source="qQKOBEGZIezpXQLUVicA-55">
          <mxGeometry relative="1" as="geometry">
            <mxPoint x="1540" y="661.4782608695655" as="targetPoint" />
          </mxGeometry>
        </mxCell>
        <mxCell id="qQKOBEGZIezpXQLUVicA-55" value="Pilihan Tidak ada" style="shape=parallelogram;perimeter=parallelogramPerimeter;whiteSpace=wrap;html=1;fixedSize=1;" vertex="1" parent="1">
          <mxGeometry x="1380" y="620" width="120" height="60" as="geometry" />
        </mxCell>
        <mxCell id="qQKOBEGZIezpXQLUVicA-72" style="edgeStyle=orthogonalEdgeStyle;rounded=0;orthogonalLoop=1;jettySize=auto;html=1;exitX=1;exitY=0.5;exitDx=0;exitDy=0;" edge="1" parent="1" source="qQKOBEGZIezpXQLUVicA-71" target="qQKOBEGZIezpXQLUVicA-74">
          <mxGeometry relative="1" as="geometry">
            <mxPoint x="400" y="660" as="targetPoint" />
          </mxGeometry>
        </mxCell>
        <mxCell id="qQKOBEGZIezpXQLUVicA-71" value="pilih_menu == &quot;4&quot;" style="rhombus;whiteSpace=wrap;html=1;" vertex="1" parent="1">
          <mxGeometry x="240" y="520" width="80" height="80" as="geometry" />
        </mxCell>
        <mxCell id="qQKOBEGZIezpXQLUVicA-187" style="edgeStyle=orthogonalEdgeStyle;rounded=0;orthogonalLoop=1;jettySize=auto;html=1;exitX=1;exitY=1;exitDx=0;exitDy=0;" edge="1" parent="1" source="qQKOBEGZIezpXQLUVicA-74">
          <mxGeometry relative="1" as="geometry">
            <mxPoint x="510" y="711.25" as="targetPoint" />
          </mxGeometry>
        </mxCell>
        <mxCell id="qQKOBEGZIezpXQLUVicA-74" value="exit" style="shape=parallelogram;perimeter=parallelogramPerimeter;whiteSpace=wrap;html=1;fixedSize=1;" vertex="1" parent="1">
          <mxGeometry x="340" y="660" width="120" height="60" as="geometry" />
        </mxCell>
        <mxCell id="qQKOBEGZIezpXQLUVicA-75" value="b == admin" style="shape=hexagon;perimeter=hexagonPerimeter2;whiteSpace=wrap;html=1;fixedSize=1;" vertex="1" parent="1">
          <mxGeometry x="310" y="-280" width="120" height="80" as="geometry" />
        </mxCell>
        <mxCell id="qQKOBEGZIezpXQLUVicA-78" style="edgeStyle=orthogonalEdgeStyle;rounded=0;orthogonalLoop=1;jettySize=auto;html=1;exitX=0;exitY=0.5;exitDx=0;exitDy=0;entryX=0;entryY=0.5;entryDx=0;entryDy=0;" edge="1" parent="1" source="qQKOBEGZIezpXQLUVicA-74" target="qQKOBEGZIezpXQLUVicA-75">
          <mxGeometry relative="1" as="geometry">
            <mxPoint x="190" y="640" as="sourcePoint" />
            <Array as="points">
              <mxPoint x="90" y="690" />
              <mxPoint x="90" y="-240" />
            </Array>
          </mxGeometry>
        </mxCell>
        <mxCell id="qQKOBEGZIezpXQLUVicA-90" style="edgeStyle=orthogonalEdgeStyle;rounded=0;orthogonalLoop=1;jettySize=auto;html=1;exitX=0.5;exitY=1;exitDx=0;exitDy=0;" edge="1" parent="1" source="qQKOBEGZIezpXQLUVicA-89" target="qQKOBEGZIezpXQLUVicA-91">
          <mxGeometry relative="1" as="geometry">
            <mxPoint x="817.5" y="835" as="targetPoint" />
          </mxGeometry>
        </mxCell>
        <mxCell id="qQKOBEGZIezpXQLUVicA-89" value="menyimpan data base" style="rounded=0;whiteSpace=wrap;html=1;" vertex="1" parent="1">
          <mxGeometry x="758" y="685" width="120" height="60" as="geometry" />
        </mxCell>
        <mxCell id="qQKOBEGZIezpXQLUVicA-96" value="" style="edgeStyle=orthogonalEdgeStyle;rounded=0;orthogonalLoop=1;jettySize=auto;html=1;" edge="1" parent="1" source="qQKOBEGZIezpXQLUVicA-91" target="qQKOBEGZIezpXQLUVicA-97">
          <mxGeometry relative="1" as="geometry">
            <mxPoint x="818" y="935" as="targetPoint" />
          </mxGeometry>
        </mxCell>
        <mxCell id="qQKOBEGZIezpXQLUVicA-91" value="database" style="shape=cylinder3;whiteSpace=wrap;html=1;boundedLbl=1;backgroundOutline=1;size=15;" vertex="1" parent="1">
          <mxGeometry x="787.5" y="795" width="60" height="80" as="geometry" />
        </mxCell>
        <mxCell id="qQKOBEGZIezpXQLUVicA-134" style="edgeStyle=orthogonalEdgeStyle;rounded=0;orthogonalLoop=1;jettySize=auto;html=1;exitX=0.5;exitY=1;exitDx=0;exitDy=0;" edge="1" parent="1" source="qQKOBEGZIezpXQLUVicA-97">
          <mxGeometry relative="1" as="geometry">
            <mxPoint x="817.7647058823532" y="1040" as="targetPoint" />
          </mxGeometry>
        </mxCell>
        <mxCell id="qQKOBEGZIezpXQLUVicA-185" style="edgeStyle=orthogonalEdgeStyle;rounded=0;orthogonalLoop=1;jettySize=auto;html=1;exitX=1;exitY=1;exitDx=0;exitDy=0;" edge="1" parent="1" source="qQKOBEGZIezpXQLUVicA-97">
          <mxGeometry relative="1" as="geometry">
            <mxPoint x="910" y="956.25" as="targetPoint" />
          </mxGeometry>
        </mxCell>
        <mxCell id="qQKOBEGZIezpXQLUVicA-97" value="Berhasil di update" style="shape=parallelogram;perimeter=parallelogramPerimeter;whiteSpace=wrap;html=1;fixedSize=1;" vertex="1" parent="1">
          <mxGeometry x="758" y="905" width="120" height="60" as="geometry" />
        </mxCell>
        <mxCell id="qQKOBEGZIezpXQLUVicA-107" style="edgeStyle=orthogonalEdgeStyle;rounded=0;orthogonalLoop=1;jettySize=auto;html=1;exitX=0.5;exitY=1;exitDx=0;exitDy=0;" edge="1" parent="1" source="qQKOBEGZIezpXQLUVicA-100" target="qQKOBEGZIezpXQLUVicA-108">
          <mxGeometry relative="1" as="geometry">
            <mxPoint x="-199.71428571428578" y="-190" as="targetPoint" />
          </mxGeometry>
        </mxCell>
        <mxCell id="qQKOBEGZIezpXQLUVicA-100" value="Akun di simpan di database" style="rounded=0;whiteSpace=wrap;html=1;" vertex="1" parent="1">
          <mxGeometry x="-260" y="-360" width="120" height="60" as="geometry" />
        </mxCell>
        <mxCell id="qQKOBEGZIezpXQLUVicA-190" style="edgeStyle=orthogonalEdgeStyle;rounded=0;orthogonalLoop=1;jettySize=auto;html=1;exitX=1;exitY=1;exitDx=0;exitDy=0;" edge="1" parent="1" source="qQKOBEGZIezpXQLUVicA-102">
          <mxGeometry relative="1" as="geometry">
            <mxPoint x="-700" y="-315" as="targetPoint" />
          </mxGeometry>
        </mxCell>
        <mxCell id="qQKOBEGZIezpXQLUVicA-102" value="Pilihan anda idak valid" style="shape=parallelogram;perimeter=parallelogramPerimeter;whiteSpace=wrap;html=1;fixedSize=1;" vertex="1" parent="1">
          <mxGeometry x="-940" y="-360" width="180" height="50" as="geometry" />
        </mxCell>
        <mxCell id="qQKOBEGZIezpXQLUVicA-109" style="edgeStyle=orthogonalEdgeStyle;rounded=0;orthogonalLoop=1;jettySize=auto;html=1;exitX=0.5;exitY=1;exitDx=0;exitDy=0;exitPerimeter=0;" edge="1" parent="1" source="qQKOBEGZIezpXQLUVicA-108" target="qQKOBEGZIezpXQLUVicA-110">
          <mxGeometry relative="1" as="geometry">
            <mxPoint x="-199.71428571428578" y="-70" as="targetPoint" />
          </mxGeometry>
        </mxCell>
        <mxCell id="qQKOBEGZIezpXQLUVicA-108" value="Database" style="shape=cylinder3;whiteSpace=wrap;html=1;boundedLbl=1;backgroundOutline=1;size=15;" vertex="1" parent="1">
          <mxGeometry x="-229.71428571428578" y="-230" width="60" height="80" as="geometry" />
        </mxCell>
        <mxCell id="qQKOBEGZIezpXQLUVicA-188" style="edgeStyle=orthogonalEdgeStyle;rounded=0;orthogonalLoop=1;jettySize=auto;html=1;exitX=1;exitY=1;exitDx=0;exitDy=0;" edge="1" parent="1" source="qQKOBEGZIezpXQLUVicA-110">
          <mxGeometry relative="1" as="geometry">
            <mxPoint x="-110" y="-48.75" as="targetPoint" />
          </mxGeometry>
        </mxCell>
        <mxCell id="qQKOBEGZIezpXQLUVicA-110" value="Akun berhasil di simpan" style="shape=parallelogram;perimeter=parallelogramPerimeter;whiteSpace=wrap;html=1;fixedSize=1;" vertex="1" parent="1">
          <mxGeometry x="-259.7142857142858" y="-100" width="120" height="60" as="geometry" />
        </mxCell>
        <mxCell id="qQKOBEGZIezpXQLUVicA-118" value="" style="edgeStyle=orthogonalEdgeStyle;rounded=0;orthogonalLoop=1;jettySize=auto;html=1;" edge="1" parent="1" source="qQKOBEGZIezpXQLUVicA-116" target="qQKOBEGZIezpXQLUVicA-117">
          <mxGeometry relative="1" as="geometry" />
        </mxCell>
        <mxCell id="qQKOBEGZIezpXQLUVicA-116" value="database" style="shape=cylinder3;whiteSpace=wrap;html=1;boundedLbl=1;backgroundOutline=1;size=15;" vertex="1" parent="1">
          <mxGeometry x="560" y="674" width="60" height="80" as="geometry" />
        </mxCell>
        <mxCell id="qQKOBEGZIezpXQLUVicA-184" style="edgeStyle=orthogonalEdgeStyle;rounded=0;orthogonalLoop=1;jettySize=auto;html=1;exitX=1;exitY=1;exitDx=0;exitDy=0;" edge="1" parent="1" source="qQKOBEGZIezpXQLUVicA-117">
          <mxGeometry relative="1" as="geometry">
            <mxPoint x="670" y="895" as="targetPoint" />
          </mxGeometry>
        </mxCell>
        <mxCell id="qQKOBEGZIezpXQLUVicA-117" value="Data Berhasil di hapus" style="shape=parallelogram;perimeter=parallelogramPerimeter;whiteSpace=wrap;html=1;fixedSize=1;" vertex="1" parent="1">
          <mxGeometry x="530" y="844" width="120" height="60" as="geometry" />
        </mxCell>
        <mxCell id="qQKOBEGZIezpXQLUVicA-123" value="" style="endArrow=none;html=1;rounded=0;entryX=0.5;entryY=1;entryDx=0;entryDy=0;" edge="1" parent="1" target="qQKOBEGZIezpXQLUVicA-110">
          <mxGeometry width="50" height="50" relative="1" as="geometry">
            <mxPoint x="-200" y="960" as="sourcePoint" />
            <mxPoint x="-380" y="-660" as="targetPoint" />
          </mxGeometry>
        </mxCell>
        <mxCell id="qQKOBEGZIezpXQLUVicA-124" value="" style="endArrow=none;html=1;rounded=0;entryX=0.5;entryY=1;entryDx=0;entryDy=0;" edge="1" parent="1" target="qQKOBEGZIezpXQLUVicA-102">
          <mxGeometry width="50" height="50" relative="1" as="geometry">
            <mxPoint x="-850" y="920" as="sourcePoint" />
            <mxPoint x="-230" y="-200" as="targetPoint" />
          </mxGeometry>
        </mxCell>
        <mxCell id="qQKOBEGZIezpXQLUVicA-125" value="" style="endArrow=classic;html=1;rounded=0;" edge="1" parent="1">
          <mxGeometry width="50" height="50" relative="1" as="geometry">
            <mxPoint x="-1200" y="880" as="sourcePoint" />
            <mxPoint x="-850" y="880" as="targetPoint" />
          </mxGeometry>
        </mxCell>
        <mxCell id="qQKOBEGZIezpXQLUVicA-126" value="" style="endArrow=classic;html=1;rounded=0;" edge="1" parent="1">
          <mxGeometry width="50" height="50" relative="1" as="geometry">
            <mxPoint x="-850" y="920" as="sourcePoint" />
            <mxPoint x="-200" y="920" as="targetPoint" />
          </mxGeometry>
        </mxCell>
        <mxCell id="qQKOBEGZIezpXQLUVicA-128" value="" style="endArrow=none;html=1;rounded=0;entryX=0;entryY=0.5;entryDx=0;entryDy=0;" edge="1" parent="1" target="qQKOBEGZIezpXQLUVicA-71">
          <mxGeometry width="50" height="50" relative="1" as="geometry">
            <mxPoint x="200" y="1000" as="sourcePoint" />
            <mxPoint x="260" y="360" as="targetPoint" />
            <Array as="points">
              <mxPoint x="200" y="560" />
            </Array>
          </mxGeometry>
        </mxCell>
        <mxCell id="qQKOBEGZIezpXQLUVicA-129" value="" style="endArrow=classic;html=1;rounded=0;" edge="1" parent="1">
          <mxGeometry width="50" height="50" relative="1" as="geometry">
            <mxPoint x="-200" y="960" as="sourcePoint" />
            <mxPoint x="200" y="960" as="targetPoint" />
            <Array as="points">
              <mxPoint y="960" />
            </Array>
          </mxGeometry>
        </mxCell>
        <mxCell id="qQKOBEGZIezpXQLUVicA-131" value="" style="endArrow=classic;html=1;rounded=0;" edge="1" parent="1">
          <mxGeometry width="50" height="50" relative="1" as="geometry">
            <mxPoint x="200" y="1000" as="sourcePoint" />
            <mxPoint x="590" y="1000" as="targetPoint" />
            <Array as="points">
              <mxPoint x="320" y="1000" />
            </Array>
          </mxGeometry>
        </mxCell>
        <mxCell id="qQKOBEGZIezpXQLUVicA-133" value="" style="endArrow=none;html=1;rounded=0;entryX=0.5;entryY=1;entryDx=0;entryDy=0;" edge="1" parent="1" target="qQKOBEGZIezpXQLUVicA-117">
          <mxGeometry width="50" height="50" relative="1" as="geometry">
            <mxPoint x="590" y="1040" as="sourcePoint" />
            <mxPoint x="670" y="890" as="targetPoint" />
          </mxGeometry>
        </mxCell>
        <mxCell id="qQKOBEGZIezpXQLUVicA-138" value="" style="endArrow=none;html=1;rounded=0;entryX=0;entryY=0.5;entryDx=0;entryDy=0;" edge="1" parent="1" target="O7LQs1WoaMsfzM6fXdnC-129">
          <mxGeometry width="50" height="50" relative="1" as="geometry">
            <mxPoint x="590" y="1040" as="sourcePoint" />
            <mxPoint x="930" y="1000" as="targetPoint" />
            <Array as="points">
              <mxPoint x="820" y="1040" />
              <mxPoint x="820" y="1100" />
            </Array>
          </mxGeometry>
        </mxCell>
        <mxCell id="qQKOBEGZIezpXQLUVicA-139" value="" style="endArrow=classic;html=1;rounded=0;entryX=0;entryY=0.5;entryDx=0;entryDy=0;" edge="1" parent="1" target="O7LQs1WoaMsfzM6fXdnC-129">
          <mxGeometry width="50" height="50" relative="1" as="geometry">
            <mxPoint x="820" y="1100" as="sourcePoint" />
            <mxPoint x="1050" y="910" as="targetPoint" />
          </mxGeometry>
        </mxCell>
        <mxCell id="qQKOBEGZIezpXQLUVicA-141" value="" style="endArrow=none;html=1;rounded=0;entryX=0.5;entryY=1;entryDx=0;entryDy=0;" edge="1" parent="1" target="qQKOBEGZIezpXQLUVicA-55">
          <mxGeometry width="50" height="50" relative="1" as="geometry">
            <mxPoint x="1440" y="1100" as="sourcePoint" />
            <mxPoint x="1780" y="690" as="targetPoint" />
          </mxGeometry>
        </mxCell>
        <mxCell id="qQKOBEGZIezpXQLUVicA-142" value="" style="endArrow=none;html=1;rounded=0;entryX=0.5;entryY=1;entryDx=0;entryDy=0;" edge="1" parent="1" target="qQKOBEGZIezpXQLUVicA-53">
          <mxGeometry width="50" height="50" relative="1" as="geometry">
            <mxPoint x="1800" y="1100" as="sourcePoint" />
            <mxPoint x="1780" y="690" as="targetPoint" />
          </mxGeometry>
        </mxCell>
        <mxCell id="qQKOBEGZIezpXQLUVicA-143" value="" style="endArrow=none;html=1;rounded=0;entryX=0.5;entryY=1;entryDx=0;entryDy=0;" edge="1" parent="1" target="qQKOBEGZIezpXQLUVicA-51">
          <mxGeometry width="50" height="50" relative="1" as="geometry">
            <mxPoint x="1989" y="1080" as="sourcePoint" />
            <mxPoint x="1780" y="690" as="targetPoint" />
          </mxGeometry>
        </mxCell>
        <mxCell id="qQKOBEGZIezpXQLUVicA-144" value="" style="endArrow=none;html=1;rounded=0;entryX=0.5;entryY=1;entryDx=0;entryDy=0;" edge="1" parent="1" target="O7LQs1WoaMsfzM6fXdnC-57">
          <mxGeometry width="50" height="50" relative="1" as="geometry">
            <mxPoint x="2160" y="1070" as="sourcePoint" />
            <mxPoint x="1780" y="490" as="targetPoint" />
          </mxGeometry>
        </mxCell>
        <mxCell id="qQKOBEGZIezpXQLUVicA-145" value="" style="endArrow=classic;html=1;rounded=0;" edge="1" parent="1">
          <mxGeometry width="50" height="50" relative="1" as="geometry">
            <mxPoint x="2160" y="1070" as="sourcePoint" />
            <mxPoint x="1990" y="1070" as="targetPoint" />
          </mxGeometry>
        </mxCell>
        <mxCell id="qQKOBEGZIezpXQLUVicA-146" value="" style="endArrow=classic;html=1;rounded=0;" edge="1" parent="1">
          <mxGeometry width="50" height="50" relative="1" as="geometry">
            <mxPoint x="1990" y="1080" as="sourcePoint" />
            <mxPoint x="1800" y="1080" as="targetPoint" />
          </mxGeometry>
        </mxCell>
        <mxCell id="qQKOBEGZIezpXQLUVicA-147" value="" style="endArrow=classic;html=1;rounded=0;" edge="1" parent="1">
          <mxGeometry width="50" height="50" relative="1" as="geometry">
            <mxPoint x="1800" y="1100" as="sourcePoint" />
            <mxPoint x="1440" y="1100" as="targetPoint" />
          </mxGeometry>
        </mxCell>
        <mxCell id="qQKOBEGZIezpXQLUVicA-148" value="" style="endArrow=classic;html=1;rounded=0;entryX=1;entryY=0.5;entryDx=0;entryDy=0;" edge="1" parent="1" target="O7LQs1WoaMsfzM6fXdnC-129">
          <mxGeometry width="50" height="50" relative="1" as="geometry">
            <mxPoint x="1440" y="1100" as="sourcePoint" />
            <mxPoint x="1220" y="1010" as="targetPoint" />
          </mxGeometry>
        </mxCell>
        <mxCell id="qQKOBEGZIezpXQLUVicA-149" value="false" style="text;html=1;strokeColor=none;fillColor=none;align=center;verticalAlign=middle;whiteSpace=wrap;rounded=0;" vertex="1" parent="1">
          <mxGeometry x="-760" y="-470" width="60" height="30" as="geometry" />
        </mxCell>
        <mxCell id="qQKOBEGZIezpXQLUVicA-150" value="True" style="text;html=1;strokeColor=none;fillColor=none;align=center;verticalAlign=middle;whiteSpace=wrap;rounded=0;" vertex="1" parent="1">
          <mxGeometry x="-390" y="-470" width="60" height="30" as="geometry" />
        </mxCell>
        <mxCell id="qQKOBEGZIezpXQLUVicA-151" value="True" style="text;html=1;strokeColor=none;fillColor=none;align=center;verticalAlign=middle;whiteSpace=wrap;rounded=0;" vertex="1" parent="1">
          <mxGeometry x="-675.42" y="-860" width="60" height="30" as="geometry" />
        </mxCell>
        <mxCell id="qQKOBEGZIezpXQLUVicA-153" value="False" style="text;html=1;strokeColor=none;fillColor=none;align=center;verticalAlign=middle;whiteSpace=wrap;rounded=0;" vertex="1" parent="1">
          <mxGeometry x="-870" y="-860" width="60" height="30" as="geometry" />
        </mxCell>
        <mxCell id="qQKOBEGZIezpXQLUVicA-154" value="True" style="text;html=1;strokeColor=none;fillColor=none;align=center;verticalAlign=middle;whiteSpace=wrap;rounded=0;" vertex="1" parent="1">
          <mxGeometry x="1190" y="-345" width="60" height="30" as="geometry" />
        </mxCell>
        <mxCell id="qQKOBEGZIezpXQLUVicA-155" value="False" style="text;html=1;strokeColor=none;fillColor=none;align=center;verticalAlign=middle;whiteSpace=wrap;rounded=0;" vertex="1" parent="1">
          <mxGeometry x="860" y="-350" width="60" height="30" as="geometry" />
        </mxCell>
        <mxCell id="qQKOBEGZIezpXQLUVicA-156" value="True" style="text;html=1;strokeColor=none;fillColor=none;align=center;verticalAlign=middle;whiteSpace=wrap;rounded=0;" vertex="1" parent="1">
          <mxGeometry x="490" y="-280" width="60" height="30" as="geometry" />
        </mxCell>
        <mxCell id="qQKOBEGZIezpXQLUVicA-157" value="False" style="text;html=1;strokeColor=none;fillColor=none;align=center;verticalAlign=middle;whiteSpace=wrap;rounded=0;" vertex="1" parent="1">
          <mxGeometry x="230" y="-270" width="60" height="30" as="geometry" />
        </mxCell>
        <mxCell id="qQKOBEGZIezpXQLUVicA-158" value="True&lt;br&gt;" style="text;html=1;strokeColor=none;fillColor=none;align=center;verticalAlign=middle;whiteSpace=wrap;rounded=0;" vertex="1" parent="1">
          <mxGeometry x="838" y="280" width="60" height="30" as="geometry" />
        </mxCell>
        <mxCell id="qQKOBEGZIezpXQLUVicA-160" value="False" style="text;html=1;strokeColor=none;fillColor=none;align=center;verticalAlign=middle;whiteSpace=wrap;rounded=0;" vertex="1" parent="1">
          <mxGeometry x="620" y="280" width="60" height="30" as="geometry" />
        </mxCell>
        <mxCell id="qQKOBEGZIezpXQLUVicA-161" value="True&lt;br&gt;" style="text;html=1;strokeColor=none;fillColor=none;align=center;verticalAlign=middle;whiteSpace=wrap;rounded=0;" vertex="1" parent="1">
          <mxGeometry x="698" y="369" width="60" height="30" as="geometry" />
        </mxCell>
        <mxCell id="qQKOBEGZIezpXQLUVicA-162" value="False" style="text;html=1;strokeColor=none;fillColor=none;align=center;verticalAlign=middle;whiteSpace=wrap;rounded=0;" vertex="1" parent="1">
          <mxGeometry x="470" y="360" width="60" height="30" as="geometry" />
        </mxCell>
        <mxCell id="qQKOBEGZIezpXQLUVicA-163" value="True&lt;br&gt;" style="text;html=1;strokeColor=none;fillColor=none;align=center;verticalAlign=middle;whiteSpace=wrap;rounded=0;" vertex="1" parent="1">
          <mxGeometry x="510" y="464" width="60" height="30" as="geometry" />
        </mxCell>
        <mxCell id="qQKOBEGZIezpXQLUVicA-164" value="False" style="text;html=1;strokeColor=none;fillColor=none;align=center;verticalAlign=middle;whiteSpace=wrap;rounded=0;" vertex="1" parent="1">
          <mxGeometry x="300" y="464" width="60" height="30" as="geometry" />
        </mxCell>
        <mxCell id="qQKOBEGZIezpXQLUVicA-165" value="False" style="text;html=1;strokeColor=none;fillColor=none;align=center;verticalAlign=middle;whiteSpace=wrap;rounded=0;" vertex="1" parent="1">
          <mxGeometry x="180" y="526.5" width="60" height="30" as="geometry" />
        </mxCell>
        <mxCell id="qQKOBEGZIezpXQLUVicA-168" value="True&lt;br&gt;" style="text;html=1;strokeColor=none;fillColor=none;align=center;verticalAlign=middle;whiteSpace=wrap;rounded=0;" vertex="1" parent="1">
          <mxGeometry x="330" y="526.5" width="60" height="30" as="geometry" />
        </mxCell>
        <mxCell id="qQKOBEGZIezpXQLUVicA-169" value="True" style="text;html=1;strokeColor=none;fillColor=none;align=center;verticalAlign=middle;whiteSpace=wrap;rounded=0;" vertex="1" parent="1">
          <mxGeometry x="2065" y="250" width="60" height="30" as="geometry" />
        </mxCell>
        <mxCell id="qQKOBEGZIezpXQLUVicA-171" value="False" style="text;html=1;strokeColor=none;fillColor=none;align=center;verticalAlign=middle;whiteSpace=wrap;rounded=0;" vertex="1" parent="1">
          <mxGeometry x="1830" y="250" width="60" height="30" as="geometry" />
        </mxCell>
        <mxCell id="qQKOBEGZIezpXQLUVicA-172" value="True" style="text;html=1;strokeColor=none;fillColor=none;align=center;verticalAlign=middle;whiteSpace=wrap;rounded=0;" vertex="1" parent="1">
          <mxGeometry x="1915.5" y="369" width="60" height="30" as="geometry" />
        </mxCell>
        <mxCell id="qQKOBEGZIezpXQLUVicA-173" value="False" style="text;html=1;strokeColor=none;fillColor=none;align=center;verticalAlign=middle;whiteSpace=wrap;rounded=0;" vertex="1" parent="1">
          <mxGeometry x="1682" y="369" width="60" height="30" as="geometry" />
        </mxCell>
        <mxCell id="qQKOBEGZIezpXQLUVicA-174" value="True" style="text;html=1;strokeColor=none;fillColor=none;align=center;verticalAlign=middle;whiteSpace=wrap;rounded=0;" vertex="1" parent="1">
          <mxGeometry x="1730" y="500" width="60" height="50" as="geometry" />
        </mxCell>
        <mxCell id="qQKOBEGZIezpXQLUVicA-175" value="False" style="text;html=1;strokeColor=none;fillColor=none;align=center;verticalAlign=middle;whiteSpace=wrap;rounded=0;" vertex="1" parent="1">
          <mxGeometry x="1450" y="510" width="60" height="30" as="geometry" />
        </mxCell>
        <mxCell id="qQKOBEGZIezpXQLUVicA-182" value="" style="endArrow=classic;html=1;rounded=0;entryX=0.417;entryY=0.023;entryDx=0;entryDy=0;entryPerimeter=0;" edge="1" parent="1" target="O7LQs1WoaMsfzM6fXdnC-104">
          <mxGeometry width="50" height="50" relative="1" as="geometry">
            <mxPoint x="1880" y="550" as="sourcePoint" />
            <mxPoint x="1710" y="580" as="targetPoint" />
          </mxGeometry>
        </mxCell>
        <mxCell id="qQKOBEGZIezpXQLUVicA-191" value="" style="endArrow=classic;html=1;rounded=0;entryX=0.41;entryY=0;entryDx=0;entryDy=0;entryPerimeter=0;" edge="1" parent="1" target="qQKOBEGZIezpXQLUVicA-29">
          <mxGeometry width="50" height="50" relative="1" as="geometry">
            <mxPoint x="-630" y="-670" as="sourcePoint" />
            <mxPoint x="-560" y="-670" as="targetPoint" />
          </mxGeometry>
        </mxCell>
        <mxCell id="qQKOBEGZIezpXQLUVicA-192" value="" style="endArrow=classic;html=1;rounded=0;entryX=0.36;entryY=0.021;entryDx=0;entryDy=0;entryPerimeter=0;" edge="1" parent="1" target="qQKOBEGZIezpXQLUVicA-27">
          <mxGeometry width="50" height="50" relative="1" as="geometry">
            <mxPoint x="-660" y="-779" as="sourcePoint" />
            <mxPoint x="-540" y="-700" as="targetPoint" />
          </mxGeometry>
        </mxCell>
        <mxCell id="qQKOBEGZIezpXQLUVicA-196" value="" style="endArrow=classic;html=1;rounded=0;entryX=0.317;entryY=-0.042;entryDx=0;entryDy=0;entryPerimeter=0;" edge="1" parent="1" target="8om0vuzCokEeq5N41jvd-29">
          <mxGeometry width="50" height="50" relative="1" as="geometry">
            <mxPoint x="920" y="-873" as="sourcePoint" />
            <mxPoint x="990" y="-770" as="targetPoint" />
          </mxGeometry>
        </mxCell>
        <mxCell id="qQKOBEGZIezpXQLUVicA-197" value="" style="endArrow=classic;html=1;rounded=0;entryX=0.5;entryY=0;entryDx=0;entryDy=0;" edge="1" parent="1" target="8om0vuzCokEeq5N41jvd-32">
          <mxGeometry width="50" height="50" relative="1" as="geometry">
            <mxPoint x="950" y="-750" as="sourcePoint" />
            <mxPoint x="990" y="-640" as="targetPoint" />
          </mxGeometry>
        </mxCell>
        <mxCell id="qQKOBEGZIezpXQLUVicA-200" style="edgeStyle=orthogonalEdgeStyle;rounded=0;orthogonalLoop=1;jettySize=auto;html=1;exitX=1;exitY=0.5;exitDx=0;exitDy=0;" edge="1" parent="1" source="qQKOBEGZIezpXQLUVicA-199" target="qQKOBEGZIezpXQLUVicA-201">
          <mxGeometry relative="1" as="geometry">
            <mxPoint x="-960" y="-714.5454545454545" as="targetPoint" />
          </mxGeometry>
        </mxCell>
        <mxCell id="qQKOBEGZIezpXQLUVicA-212" style="edgeStyle=orthogonalEdgeStyle;rounded=0;orthogonalLoop=1;jettySize=auto;html=1;exitX=0;exitY=0.5;exitDx=0;exitDy=0;entryX=0.5;entryY=0;entryDx=0;entryDy=0;" edge="1" parent="1" source="qQKOBEGZIezpXQLUVicA-199" target="qQKOBEGZIezpXQLUVicA-210">
          <mxGeometry relative="1" as="geometry" />
        </mxCell>
        <mxCell id="qQKOBEGZIezpXQLUVicA-199" value="pilihan == &quot;3&quot;" style="rhombus;whiteSpace=wrap;html=1;" vertex="1" parent="1">
          <mxGeometry x="-1119.9990909090914" y="-780" width="80" height="80" as="geometry" />
        </mxCell>
        <mxCell id="qQKOBEGZIezpXQLUVicA-207" style="edgeStyle=orthogonalEdgeStyle;rounded=0;orthogonalLoop=1;jettySize=auto;html=1;exitX=1;exitY=1;exitDx=0;exitDy=0;" edge="1" parent="1" source="qQKOBEGZIezpXQLUVicA-201">
          <mxGeometry relative="1" as="geometry">
            <mxPoint x="-880" y="-649.4545454545455" as="targetPoint" />
          </mxGeometry>
        </mxCell>
        <mxCell id="qQKOBEGZIezpXQLUVicA-201" value="Exit" style="shape=parallelogram;perimeter=parallelogramPerimeter;whiteSpace=wrap;html=1;fixedSize=1;" vertex="1" parent="1">
          <mxGeometry x="-1040" y="-699.9954545454545" width="120" height="60" as="geometry" />
        </mxCell>
        <mxCell id="qQKOBEGZIezpXQLUVicA-203" value="" style="endArrow=none;html=1;rounded=0;entryX=0;entryY=0.5;entryDx=0;entryDy=0;" edge="1" parent="1">
          <mxGeometry width="50" height="50" relative="1" as="geometry">
            <mxPoint x="-1200" y="884" as="sourcePoint" />
            <mxPoint x="-1199.9990909090914" y="-670" as="targetPoint" />
          </mxGeometry>
        </mxCell>
        <mxCell id="qQKOBEGZIezpXQLUVicA-204" value="" style="endArrow=none;html=1;rounded=0;entryX=0.25;entryY=1;entryDx=0;entryDy=0;" edge="1" parent="1" target="qQKOBEGZIezpXQLUVicA-201">
          <mxGeometry width="50" height="50" relative="1" as="geometry">
            <mxPoint x="-1010" y="895.4545454545455" as="sourcePoint" />
            <mxPoint x="-800" y="-730" as="targetPoint" />
          </mxGeometry>
        </mxCell>
        <mxCell id="qQKOBEGZIezpXQLUVicA-205" value="True" style="text;html=1;strokeColor=none;fillColor=none;align=center;verticalAlign=middle;whiteSpace=wrap;rounded=0;" vertex="1" parent="1">
          <mxGeometry x="-1040" y="-770" width="60" height="30" as="geometry" />
        </mxCell>
        <mxCell id="qQKOBEGZIezpXQLUVicA-209" value="False" style="text;html=1;strokeColor=none;fillColor=none;align=center;verticalAlign=middle;whiteSpace=wrap;rounded=0;" vertex="1" parent="1">
          <mxGeometry x="-1190" y="-770" width="60" height="30" as="geometry" />
        </mxCell>
        <mxCell id="qQKOBEGZIezpXQLUVicA-214" style="edgeStyle=orthogonalEdgeStyle;rounded=0;orthogonalLoop=1;jettySize=auto;html=1;exitX=1;exitY=1;exitDx=0;exitDy=0;" edge="1" parent="1" source="qQKOBEGZIezpXQLUVicA-210">
          <mxGeometry relative="1" as="geometry">
            <mxPoint x="-1100" y="-649.4545454545455" as="targetPoint" />
          </mxGeometry>
        </mxCell>
        <mxCell id="qQKOBEGZIezpXQLUVicA-210" value="Pilihan anda tidak Valid" style="shape=parallelogram;perimeter=parallelogramPerimeter;whiteSpace=wrap;html=1;fixedSize=1;" vertex="1" parent="1">
          <mxGeometry x="-1259.9990909090914" y="-700" width="120" height="60" as="geometry" />
        </mxCell>
      </root>
    </mxGraphModel>
  </diagram>
</mxfile>
